<svg xmlns="http://www.w3.org/2000/svg" viewBox="0 0 86.49 77.03"><defs><style>.cls-1{fill:#61dbfb;}.cls-2{fill:#3d5afe;}.cls-3{fill:#fff;}</style></defs><title>Asset 7@</title><g id="Layer_2" data-name="Layer 2"><g id="Layer_2-2" data-name="Layer 2"><path class="cls-1" d="M86.49,38.52c0-5.73-7.17-11.16-18.17-14.53,2.54-11.21,1.41-20.13-3.56-23a7.77,7.77,0,0,0-3.93-1V0C56,0,49.63,3.46,43.21,9.45,36.79,3.49,30.45.07,25.6.07v0a7.9,7.9,0,0,0-4,1C16.66,3.93,15.55,12.83,18.11,24,7.14,27.4,0,32.81,0,38.52S7.18,49.68,18.18,53.05c-2.54,11.21-1.41,20.13,3.56,23a7.72,7.72,0,0,0,4,1c4.84,0,11.19-3.46,17.61-9.45,6.42,6,12.76,9.38,17.61,9.38a7.9,7.9,0,0,0,4-1c5-2.86,6.06-11.76,3.5-22.94C79.35,49.66,86.49,44.23,86.49,38.52ZM60.81,3.93V4a4.09,4.09,0,0,1,2,.46c2.39,1.37,3.44,6.61,2.62,13.34a52.39,52.39,0,0,1-.9,5.19A84,84,0,0,0,53.35,21,85.72,85.72,0,0,0,46,12.2C51.75,6.87,57.14,3.94,60.81,3.93ZM27.63,47.55c.83,1.41,1.67,2.78,2.54,4.12-2.51-.37-4.92-.82-7.23-1.39.65-2.27,1.46-4.62,2.38-7C26,44.73,26.8,46.14,27.63,47.55ZM22.88,26.76c2.31-.54,4.75-1,7.27-1.39-.87,1.36-1.73,2.75-2.54,4.18S26,32.37,25.32,33.78C24.37,31.42,23.55,29.05,22.88,26.76Zm4.5,11.82c1.09-2.37,2.33-4.73,3.65-7s2.79-4.64,4.25-6.73c2.63-.23,5.29-.36,8-.36s5.32.13,7.93.34c1.46,2.1,2.89,4.34,4.27,6.7s2.55,4.65,3.66,7c-1.11,2.37-2.32,4.73-3.64,7s-2.79,4.64-4.25,6.73c-2.63.23-5.29.36-8,.36s-5.33-.13-7.94-.34c-1.46-2.1-2.89-4.34-4.26-6.7S28.49,40.94,27.38,38.58ZM58.87,47.5c.81-1.41,1.57-2.84,2.29-4.25,1,2.36,1.76,4.72,2.43,7-2.31.57-4.74,1-7.26,1.41C57.19,50.32,58.06,48.92,58.87,47.5Zm0-18c-.81-1.41-1.67-2.79-2.54-4.13q3.77.55,7.23,1.39c-.65,2.28-1.46,4.62-2.38,7C60.44,32.32,59.68,30.91,58.85,29.5ZM48.1,20.63c-1.59-.07-3.21-.13-4.85-.13s-3.3,0-4.9.13A66.28,66.28,0,0,1,43.19,15,72.5,72.5,0,0,1,48.1,20.63ZM23.57,4.48a3.91,3.91,0,0,1,2-.46V4c3.65,0,9.06,2.91,14.81,8.22A81.51,81.51,0,0,0,33.13,21,82.56,82.56,0,0,0,21.91,23c-.4-1.76-.7-3.47-.91-5.11C20.17,11.11,21.19,5.87,23.57,4.48ZM19.13,49.24a49.91,49.91,0,0,1-4.94-1.8C8,44.78,3.91,41.29,3.91,38.52s4-6.27,10.28-8.92c1.52-.65,3.18-1.23,4.89-1.78a83.87,83.87,0,0,0,4,10.74A83.6,83.6,0,0,0,19.13,49.24Zm6.54,23.87a4.12,4.12,0,0,1-2-.47c-2.4-1.38-3.44-6.61-2.63-13.35a52.21,52.21,0,0,1,.9-5.18A86.09,86.09,0,0,0,33.15,56a85.36,85.36,0,0,0,7.33,8.81C34.73,70.19,29.34,73.11,25.67,73.11Zm17.61-11a72.18,72.18,0,0,1-4.9-5.64c1.59.07,3.21.12,4.85.12s3.3,0,4.9-.12A69.87,69.87,0,0,1,43.28,62.06ZM62.92,72.57a4,4,0,0,1-2,.46c-3.65,0-9.07-2.91-14.81-8.22A85,85,0,0,0,53.37,56a81.12,81.12,0,0,0,11.21-1.94,49.76,49.76,0,0,1,.92,5.13C66.33,65.94,65.3,71.17,62.92,72.57Zm9.36-25.13a49.63,49.63,0,0,1-4.88,1.78,83.87,83.87,0,0,0-4-10.73A82.86,82.86,0,0,0,67.35,27.8c1.74.55,3.4,1.15,5,1.8,6.24,2.66,10.28,6.15,10.28,8.92S78.53,44.8,72.28,47.44Z"/><circle class="cls-2" cx="43.23" cy="38.52" r="12.72"/><path class="cls-3" d="M54,38.52a2.14,2.14,0,0,1-2.14-2.14h0V32.09a2.15,2.15,0,0,0-2.15-2.15H47.52V40.67L38.94,30H36.8a2.15,2.15,0,0,0-2.15,2.15v4.29a2.14,2.14,0,0,1-2.14,2.14h0a2.14,2.14,0,0,1,2.14,2.15V45A2.14,2.14,0,0,0,36.8,47.1h2.14V36.38L47.52,47.1h2.14A2.14,2.14,0,0,0,51.81,45V40.67h0A2.14,2.14,0,0,1,54,38.52Z"/></g></g></svg>